<svg xmlns="http://www.w3.org/2000/svg" xmlns:xlink="http://www.w3.org/1999/xlink" version="1.1" x="0px" y="0px" viewBox="0 0 100 100" enable-background="new 0 0 100 100" xml:space="preserve"><path d="M81.2,22.7H18c-4.6,0-8.4,3.8-8.4,8.4v38c0,4.6,3.8,8.4,8.4,8.4h7.3l6.3,8.3c0.3,0.4,1.3,1.5,2.7,1.5c0.9,0,1.8-0.5,2.6-1.6  l6.2-8.3h38.2c4.6,0,8.4-3.8,8.4-8.4v-38C89.6,26.4,85.8,22.7,81.2,22.7z M88.4,69.1c0,3.9-3.2,7.1-7.1,7.1H42.7  c-0.2,0-0.4,0.1-0.5,0.2L35.8,85c-0.5,0.7-1.1,1.1-1.6,1.1c-0.9,0-1.6-0.9-1.7-1.1L26,76.5c-0.1-0.2-0.3-0.2-0.5-0.2H18  c-3.9,0-7.1-3.2-7.1-7.1v-38c0-3.9,3.2-7.1,7.1-7.1h63.3c3.9,0,7.1,3.2,7.1,7.1V69.1z M74.4,50.4c0,0.3-0.3,0.6-0.6,0.6H25.2  c-0.3,0-0.6-0.3-0.6-0.6s0.3-0.6,0.6-0.6h48.5C74.1,49.8,74.4,50.1,74.4,50.4z M74.4,61.5c0,0.3-0.3,0.6-0.6,0.6H25.2  c-0.3,0-0.6-0.3-0.6-0.6c0-0.3,0.3-0.6,0.6-0.6h48.5C74.1,60.8,74.4,61.1,74.4,61.5z M24.6,39.5c0-0.3,0.3-0.6,0.6-0.6h29.3  c0.3,0,0.6,0.3,0.6,0.6c0,0.3-0.3,0.6-0.6,0.6H25.2C24.9,40.1,24.6,39.8,24.6,39.5z"></path></svg>